<?xml version="1.0" encoding="UTF-8" standalone="no"?>
<svg
   xmlns:dc="http://purl.org/dc/elements/1.1/"
   xmlns:cc="http://creativecommons.org/ns#"
   xmlns:rdf="http://www.w3.org/1999/02/22-rdf-syntax-ns#"
   xmlns:svg="http://www.w3.org/2000/svg"
   xmlns="http://www.w3.org/2000/svg"
   id="svg2"
   xml:space="preserve"
   viewBox="0 0 48 48"
   version="1.1"
   style="enable-background:new 0 0 48 48;"><metadata
     id="metadata16"><rdf:RDF><cc:Work
         rdf:about=""><dc:format>image/svg+xml</dc:format><dc:type
           rdf:resource="http://purl.org/dc/dcmitype/StillImage" /><dc:title></dc:title></cc:Work></rdf:RDF></metadata><defs
     id="defs14" /><path
     id="path4226"
     d="M 21.547464,45.581857 C 19.780807,45.359101 17.969458,44.777089 16.232353,43.874039 14.28782,42.863154 11.355522,39.924014 10.352872,37.980839 9.4296397,36.191583 8.9701815,34.121755 9.1321028,32.481402 9.388006,29.889006 10.225451,28.542217 12.138045,27.647206 c 0.977222,-0.457296 1.234724,-0.663883 1.136389,-0.911692 -0.06993,-0.176226 -0.224658,-0.777109 -0.343838,-1.335295 -0.289377,-1.35532 0.03153,-2.398199 1.091941,-3.548611 1.208259,-1.310807 2.111318,-1.707176 3.614587,-1.586509 l 1.228599,0.09862 -0.68749,-1.895707 c -0.918807,-2.533542 -2.591527,-8.06624 -2.942794,-9.7335952 -0.762199,-3.6179253 0.254125,-5.8367761 2.891968,-6.313787 0.933526,-0.1688135 1.539668,0.07986 2.432884,0.9981105 1.462538,1.503524 3.425231,5.4942263 5.198689,10.5703857 0.449297,1.286018 0.888454,2.466069 0.975906,2.622334 0.106853,0.190939 0.564096,-0.801876 1.394186,-3.02721 1.509846,-4.0476463 3.285145,-7.5930837 4.451824,-8.8907116 1.084136,-1.2058209 2.044168,-1.6274245 3.217305,-1.4129011 1.095067,0.2002466 1.771491,0.7103611 2.377618,1.7930388 0.968116,1.7292742 0.569914,4.0927056 -1.941622,11.5240079 l -1.339191,3.962494 1.021366,0.423334 c 1.755363,0.727558 2.721162,1.954052 3.269491,4.152028 0.334596,1.341232 0.334776,5.554181 3.76e-4,7.18524 -1.561583,7.61511 -6.508681,12.406628 -13.701587,13.27069 -1.964376,0.235974 -1.989867,0.235911 -3.937118,-0.0096 z m 5.581261,-3.050891 c 4.040312,-1.052368 7.433527,-4.602686 8.918354,-9.331273 0.40355,-1.285153 0.461432,-1.864572 0.461432,-4.619176 0,-3.536988 -0.164688,-4.092342 -1.475541,-4.975725 -1.441205,-0.971228 -5.351289,-1.785836 -9.396355,-1.957591 -2.905957,-0.12339 -3.203797,-0.03015 -3.202564,1.002528 0.0025,2.143457 2.313733,3.146494 7.822867,3.395093 3.264407,0.147308 3.505219,0.235821 3.628496,1.333683 0.06896,0.614078 -0.279153,0.84878 -3.28258,2.213183 -1.545638,0.702157 -3.367127,2.520105 -4.195894,4.187738 -0.753982,1.517151 -0.809811,2.628153 -0.233364,4.643887 0.216543,0.757206 0.393713,1.676512 0.393713,2.042903 0,0.65681 -0.0101,0.664525 -0.719725,0.549369 -1.39638,-0.226601 -2.495846,-1.802381 -2.746682,-3.93661 -0.116048,-0.987394 -0.182347,-1.116361 -0.573891,-1.116361 -0.373676,0 -0.463372,0.137946 -0.575387,0.884915 -0.325684,2.171821 -2.445591,3.179899 -4.916546,2.33796 -1.164073,-0.396639 -3.269628,-2.311069 -3.841845,-3.493111 -0.506532,-1.046356 -0.53447,-2.480132 -0.05974,-3.066385 l 0.346087,-0.427402 1.055269,1.388075 c 0.580398,0.763439 1.396862,1.696682 1.814364,2.07387 1.088255,0.983173 2.158616,1.177718 2.602363,0.472996 0.289437,-0.459655 -0.114369,-1.320434 -1.489436,-3.174987 -1.557887,-2.101123 -2.776772,-3.295321 -3.363444,-3.295321 -1.076151,0 -2.282433,1.68741 -2.291247,3.20512 -0.01095,1.886629 1.429317,4.759103 3.328273,6.637892 3.061101,3.028589 7.591489,4.171185 11.993033,3.02473 z m -4.46484,-9.65013 c 0.202074,-0.182874 0.359275,-0.593067 0.358349,-0.935065 -0.002,-0.731486 -1.586626,-4.463526 -2.608501,-6.14333 -0.842829,-1.385484 -2.319418,-2.832316 -2.890568,-2.832316 -0.470821,0 -1.714984,1.05058 -1.887366,1.593705 -0.151984,0.478864 0.745472,2.450165 1.868028,4.103202 1.426334,2.100371 3.904772,4.535967 4.618704,4.538863 0.09974,3.76e-4 0.343353,-0.145871 0.541354,-0.325059 z M 26.95135,28.60627 c -0.04882,-0.04741 -0.597437,-0.149146 -1.219135,-0.226099 l -1.130357,-0.139911 0.424288,1.020946 0.424284,1.020947 0.79485,-0.794848 c 0.437167,-0.437168 0.754899,-0.833634 0.70607,-0.881035 z m 6.562351,-12.939179 c 0.841355,-2.392607 1.77079,-5.271981 2.065416,-6.3986104 0.495702,-1.8955368 0.51314,-2.0886549 0.233632,-2.5875825 C 35.184537,5.5595246 34.249945,6.0612265 33.234455,8.0649643 32.548497,9.4184752 29.090239,19.258551 29.24519,19.415962 c 0.08914,0.09055 1.833925,0.486227 2.540351,0.576084 0.109135,0.01388 0.886807,-1.932348 1.72816,-4.324955 z M 24.401,18.836152 C 24.3985,18.55687 20.789727,8.3864499 20.360201,7.4482457 19.310541,5.1554839 18.359053,4.497433 17.755469,5.6468058 c -0.49285,0.938507 0.196079,3.8504629 2.335848,9.8731312 l 1.213175,3.414642 1.548691,0 c 0.851779,0 1.548297,-0.04429 1.547817,-0.09843 z"
     style="fill:#fefefe;fill-opacity:1" /></svg>