<?xml version="1.0" encoding="UTF-8" standalone="no"?>
<svg
   xmlns:dc="http://purl.org/dc/elements/1.1/"
   xmlns:cc="http://creativecommons.org/ns#"
   xmlns:rdf="http://www.w3.org/1999/02/22-rdf-syntax-ns#"
   xmlns:svg="http://www.w3.org/2000/svg"
   xmlns="http://www.w3.org/2000/svg"
   viewBox="0 0 250 250"
   height="250"
   width="250"
   version="1.1"
   id="svg2">
  <metadata
     id="metadata8">
    <rdf:RDF>
      <cc:Work
         rdf:about="">
        <dc:format>image/svg+xml</dc:format>
        <dc:type
           rdf:resource="http://purl.org/dc/dcmitype/StillImage" />
        <dc:title></dc:title>
      </cc:Work>
    </rdf:RDF>
  </metadata>
  <defs
     id="defs6" />
  <path
     id="path4138"
     d="m 145.81748,219.72195 c -1.88308,-1.14812 -3.42378,-2.51728 -3.42378,-3.04254 0,-2.44213 -10.32924,-12.11533 -15.98646,-14.97109 -11.46827,-5.78916 -17.01934,-13.54044 -22.00321,-30.7243 -2.34011,-8.06843 -2.42139,-8.18172 -6.682814,-9.3144 -2.372636,-0.63065 -6.921226,-2.49958 -10.107973,-4.1532 -5.031322,-2.61079 -7.180934,-3.05109 -16.328792,-3.34459 -6.971162,-0.22366 -11.781944,-0.92519 -14.22185,-2.07389 -2.02793,-0.95475 -7.009357,-1.94207 -11.069839,-2.19407 -8.045925,-0.49933 -12.099066,-2.12819 -16.76043,-6.73562 -5.395321,-5.33288 -7.038866,-10.79264 -8.150307,-27.07489 -1.421029,-20.817578 -0.421574,-25.491837 7.140049,-33.392691 1.971694,-2.060158 5.202343,-7.120769 7.179217,-11.245813 4.499522,-9.388927 10.32607,-15.27961 19.427511,-19.641358 3.899193,-1.868637 8.748292,-4.662791 10.775779,-6.20923 4.520993,-3.448329 10.530436,-6.037308 14.013581,-6.037308 1.434013,0 4.323185,-1.0124 6.420382,-2.249777 2.097199,-1.237376 6.746398,-2.624335 10.331553,-3.082128 3.585157,-0.457794 8.779433,-1.42361 11.542833,-2.146256 3.81526,-0.997709 6.51476,-1.036739 11.21746,-0.162181 5.01089,0.931873 7.23726,0.84563 11.66321,-0.451798 8.77778,-2.573135 20.04103,-1.568745 28.82136,2.570119 3.96732,1.870107 9.0132,4.825728 11.21305,6.568047 2.19985,1.742321 4.92741,3.167856 6.06125,3.167856 5.86028,0 14.90612,5.277323 19.2804,11.248139 1.4216,1.940445 4.52334,4.409651 6.89276,5.487125 5.6282,2.559369 11.08379,8.101825 13.92545,14.147234 1.25415,2.668077 3.64533,5.860287 5.31375,7.09379 1.6684,1.233505 4.08665,4.116633 5.37388,6.406942 2.0396,3.62899 2.30635,5.478725 2.07539,14.391648 -0.14576,5.6251 0.11407,13.15875 0.57738,16.74144 1.02975,7.96253 -0.56579,15.16247 -4.50631,20.33497 -2.4284,3.18764 -2.7571,4.50923 -2.48912,10.00797 0.18962,3.89115 -0.34294,8.16429 -1.38042,11.07597 -3.96512,11.12815 -26.97744,28.45211 -41.91315,31.55275 l -5.76856,1.19756 2.47222,6.01108 c 4.54867,11.05987 3.17419,14.42661 -8.01247,19.6262 -7.48533,3.47921 -17.76576,3.75663 -22.91298,0.61829 z m 18.1228,-10.71535 c 1.47579,-0.67241 2.68325,-1.77845 2.68325,-2.45786 0,-2.34154 -6.85385,-16.89053 -9.71201,-20.61614 -4.14354,-5.40108 -6.09005,-10.72583 -6.09005,-16.65951 l 0,-5.20575 -6.72646,2.18693 c -6.56168,2.13337 -6.89073,2.14184 -13.43175,0.34662 -3.6879,-1.01218 -8.76906,-2.09086 -11.29144,-2.3971 l -4.58616,-0.55679 0.75681,3.53851 c 1.2604,5.89311 5.65589,15.90905 8.16205,18.59873 1.29822,1.39328 5.12603,3.93481 8.50625,5.64785 6.92532,3.50963 14.35534,9.92918 17.63617,15.23768 1.95623,3.16524 2.70981,3.5594 6.80497,3.5594 2.53281,0 5.81258,-0.55015 7.28837,-1.22257 z m 23.22592,-31.98843 c 7.76424,-3.88968 18.3916,-12.29811 22.38555,-17.7116 1.36253,-1.84681 2.371,-4.73518 2.371,-6.79077 l 0,-3.57705 -9.16628,0.76354 c -5.04145,0.41996 -10.71497,1.41064 -12.6078,2.20151 -4.12918,1.72529 -7.0191,1.73961 -11.93698,0.0591 -3.47654,-1.18794 -4.03313,-1.02914 -9.7446,2.78032 l -6.05745,4.0402 0,6.33782 c 0,11.17915 4.94663,17.2466 13.16838,16.15216 2.31764,-0.30851 7.53232,-2.22338 11.58818,-4.25525 z m -42.13882,-22.96913 c 2.97969,-1.71013 4.12076,-3.01638 3.89597,-4.45991 -1.2764,-8.19622 -1.35574,-12.01332 -0.29104,-14.00275 2.40099,-4.48627 8.31109,-1.59504 7.0457,3.44676 -0.35536,1.41583 -0.17089,3.82412 0.40991,5.35175 1.36431,3.58843 4.11516,2.84527 10.24871,-2.76872 5.10443,-4.67207 6.98712,-4.94307 12.90625,-1.85785 2.68225,1.39806 5.19858,1.98214 6.80378,1.57926 2.39752,-0.60174 2.51293,-0.97257 1.96247,-6.30592 -0.88019,-8.52826 3.32912,-14.80001 8.18788,-12.19969 2.22327,1.18986 2.67653,4.15922 0.90529,5.93046 -0.61893,0.61894 -0.97448,2.96555 -0.7901,5.21468 l 0.33523,4.08935 6.14293,-0.28053 c 12.91368,-0.58971 18.38315,-7.44564 15.74433,-19.73541 l -0.90478,-4.21389 -7.46621,-0.58508 c -10.32139,-0.80881 -14.78372,-3.90226 -11.99274,-8.31378 0.82269,-1.30038 1.94659,-1.32939 7.64238,-0.19725 8.26,1.64183 11.90047,0.57454 12.72336,-3.73017 0.81839,-4.281121 -1.59272,-9.152524 -5.82457,-11.767956 -2.78538,-1.721461 -4.21045,-3.7584 -5.93127,-8.477911 -1.36298,-3.738083 -3.29752,-6.88857 -4.85756,-7.910755 -7.16122,-4.692206 -11.02444,-0.285372 -7.01342,8.0003 2.6754,5.526632 2.76284,6.500814 0.73464,8.184086 -2.28349,1.895119 -5.29564,0.445309 -7.47234,-3.596554 -1.56018,-2.8971 -2.29181,-3.403658 -3.77186,-2.611558 -2.8179,1.508092 -8.61488,1.16857 -11.22156,-0.657223 -4.62353,-3.238443 -1.51755,-8.860756 3.60549,-6.52654 3.28071,1.494786 6.8307,-0.958666 9.65922,-6.675621 2.60561,-5.266404 1.99836,-7.033551 -3.76201,-10.947822 -5.5948,-3.801767 -8.21551,-3.483169 -10.66666,1.296734 -3.62398,7.067046 -11.44833,12.630636 -15.05128,10.702393 -3.06929,-1.642629 -2.25922,-4.553011 2.28335,-8.203514 2.31633,-1.861457 4.91969,-4.753933 5.78524,-6.427725 1.53873,-2.975576 1.48607,-3.115702 -2.36794,-6.300549 -9.12697,-7.542272 -20.06141,-9.910034 -30.01507,-6.499504 -3.80967,1.305352 -3.9503,1.529087 -3.94463,6.275894 0.003,2.707257 0.48722,6.655272 1.07553,8.773365 0.89929,3.237734 1.67851,3.99507 4.89246,4.755154 4.62208,1.093095 6.66086,3.725648 4.96089,6.40572 -0.64997,1.024702 -2.49413,1.861332 -4.15189,1.883555 -2.48434,0.0333 -3.13491,0.628117 -3.89493,3.561133 -1.26932,4.898474 -3.57492,8.115452 -7.59854,10.602186 -4.30577,2.66111 -10.59635,2.823113 -12.00326,0.309115 -1.42899,-2.553449 0.43084,-5.557913 3.44048,-5.557913 3.22599,0 7.60288,-3.51765 8.41803,-6.765483 0.35682,-1.421705 -0.059,-5.302321 -0.9241,-8.623592 -0.86509,-3.321271 -1.8854,-9.157965 -2.26737,-12.970432 -0.38197,-3.812466 -1.21652,-7.280043 -1.85455,-7.705727 -1.94411,-1.297066 -9.42764,-0.823145 -12.22151,0.773971 -1.44852,0.82805 -4.90214,1.522344 -7.674725,1.542876 -2.772578,0.02053 -6.121304,0.74514 -7.441617,1.610242 l -2.400567,1.572912 3.448672,7.118218 c 3.194234,6.593043 3.735334,7.157081 7.33405,7.644955 4.626527,0.627211 6.763037,3.220624 4.700537,5.705781 -1.51755,1.828533 -10.064334,2.314201 -12.588704,0.71535 -0.938589,-0.594471 -2.697198,-0.187379 -4.961286,1.148466 -4.707357,2.777409 -8.236843,2.216735 -8.653397,-1.37463 -0.255858,-2.205899 0.431036,-3.202694 3.423779,-4.968454 2.059117,-1.214909 3.743849,-2.960602 3.743849,-3.879318 0,-2.913671 -4.654319,-9.972233 -6.581154,-9.980727 -1.012297,-0.0045 -3.646502,1.623465 -5.85379,3.617617 -2.207287,1.994153 -6.751095,4.650091 -10.097347,5.902084 -3.346254,1.251994 -7.736725,3.727379 -9.756605,5.500858 -3.50607,3.078369 -9.849919,13.927406 -9.849919,16.844997 0,3.463925 11.106955,6.98314 16.076386,5.093755 2.496587,-0.949197 2.886081,-1.678831 2.886081,-5.406493 0,-5.20861 1.530397,-8.384583 4.040253,-8.384583 2.895567,0 4.38751,2.176996 4.38751,6.402113 l 0,3.873777 4.615697,-0.520257 c 5.819383,-0.65592 11.401845,1.161152 16.017333,5.213602 3.742884,3.286302 4.488098,5.840949 2.332625,7.996427 -1.638333,1.638331 -3.504571,1.604241 -5.244778,-0.09577 -5.64163,-5.511386 -11.438009,-6.284112 -21.408023,-2.853922 -9.788268,3.367661 -19.03388,2.560274 -25.972649,-2.268068 -1.537966,-1.070206 -3.261175,-1.945816 -3.829355,-1.945816 -2.174202,0 -4.700328,5.732653 -4.82968,10.960211 -0.125756,5.0823 9.8e-4,5.34975 2.37696,5.01536 3.39577,-0.47791 11.499877,2.72895 12.736726,5.04003 1.634327,3.05378 -1.066007,5.79585 -4.810508,4.88488 -8.534709,-2.07635 -8.718354,-2.0584 -9.467198,0.92524 -0.931972,3.71327 0.168265,11.40041 2.19176,15.31342 2.338321,4.52181 7.043255,6.56209 15.026139,6.51605 4.883258,-0.0281 7.703784,0.52652 10.096786,1.98568 2.458372,1.49901 5.282081,2.02579 10.874564,2.02871 7.551172,0.004 7.554215,0.003 8.253641,-3.18171 2.052788,-9.34627 16.32325,-15.64346 16.32325,-7.20303 0,1.24613 -1.396389,2.66089 -3.719976,3.76893 -5.226656,2.49243 -5.999437,6.19949 -1.970706,9.45357 4.12214,3.32954 15.167966,6.64742 22.130446,6.64742 l 5.68311,0 0,-5.91403 c 0,-6.90857 2.6099,-12.36564 7.59989,-15.89076 6.47642,-4.57519 10.05384,1.93087 3.98829,7.25329 -2.86205,2.51139 -3.16041,3.37891 -3.16041,9.18909 0,3.52873 0.11852,6.42302 0.26337,6.43173 0.14486,0.009 2.15961,0.69902 4.47725,1.53396 5.89793,2.12481 8.84027,1.94379 13.69511,-0.84255 z M 50.952473,132.06167 c -3.093302,-3.0933 -0.470017,-7.30467 7.459155,-11.97477 4.690291,-2.76248 5.578438,-3.80134 6.125103,-7.16449 1.207746,-7.43022 5.272925,-7.98144 8.789233,-1.1918 2.933454,5.6642 5.321399,5.77663 12.242252,0.5764 6.035321,-4.53485 6.228365,-4.61432 8.806423,-3.62502 4.635548,1.77883 -1.264309,10.25306 -9.547988,13.71419 -4.072361,1.70155 -10.22773,1.8869 -13.020787,0.39211 -1.327914,-0.71068 -2.191421,-0.70412 -2.638973,0.0201 -0.365874,0.59199 -2.883466,2.21317 -5.594653,3.6026 -2.711188,1.38943 -5.7544,3.51369 -6.762694,4.72058 -2.071297,2.47927 -4.001454,2.78579 -5.857071,0.93018 z M 162.3581,123.74829 c -1.04412,-1.95094 -0.50548,-2.83021 4.70355,-7.67803 3.23549,-3.01114 5.8827,-6.01282 5.8827,-6.67043 0,-1.81174 -5.09079,-7.48009 -7.36668,-8.20243 -4.24021,-1.345794 -3.39657,-7.903448 1.01679,-7.903448 2.73582,0 10.26803,5.853534 12.10617,9.408158 0.88991,1.72088 1.61801,4.82347 1.61801,6.89466 0,3.33514 0.35873,3.83755 3.13678,4.39316 3.88845,0.77769 5.66618,2.79907 4.8164,5.47649 -0.86195,2.71575 -3.37003,3.24441 -8.47992,1.78739 -3.9023,-1.11267 -4.51766,-0.98341 -8.32246,1.74811 -4.89794,3.51632 -7.5142,3.73064 -9.11134,0.74637 z m -39.76963,-6.4352 c -0.6953,-0.6953 -1.26417,-1.84659 -1.26417,-2.55843 0,-2.24325 3.26948,-4.71253 5.36082,-4.04877 1.31162,0.41629 2.91158,-0.30528 4.74732,-2.14102 2.33813,-2.33812 2.63996,-3.29076 1.94002,-6.12288 -0.45588,-1.84468 -0.8644,-5.724259 -0.90781,-8.621301 -0.0714,-4.763892 0.15925,-5.301058 2.41291,-5.619917 3.367,-0.476393 4.41017,0.824717 5.03035,6.274133 0.65314,5.739385 3.42972,8.810785 9.30167,10.289355 4.91941,1.23872 6.43694,3.3283 4.73146,6.51501 -1.29724,2.4239 -2.31882,2.48788 -8.76183,0.54883 -4.62801,-1.39283 -4.99,-1.35781 -6.02876,0.5831 -2.63608,4.92558 -13.36333,8.10054 -16.56198,4.90189 z"
     style="fill:#fefefe;fill-opacity:1" />
</svg>
