<?xml version="1.0" encoding="UTF-8" standalone="no"?>
<svg
   xmlns:dc="http://purl.org/dc/elements/1.1/"
   xmlns:cc="http://creativecommons.org/ns#"
   xmlns:rdf="http://www.w3.org/1999/02/22-rdf-syntax-ns#"
   xmlns:svg="http://www.w3.org/2000/svg"
   xmlns="http://www.w3.org/2000/svg"
   xml:space="preserve"
   style="enable-background:new 0 0 612 612;"
   viewBox="0 0 612 612"
   height="612px"
   width="612px"
   y="0px"
   x="0px"
   id="Capa_1"
   version="1.1"><metadata
     id="metadata41"><rdf:RDF><cc:Work
         rdf:about=""><dc:format>image/svg+xml</dc:format><dc:type
           rdf:resource="http://purl.org/dc/dcmitype/StillImage" /><dc:title></dc:title></cc:Work></rdf:RDF></metadata><defs
     id="defs39" /><g
     style="fill:#fefefe;fill-opacity:1"
     transform="matrix(0.85181372,0,0,0.85181372,44.084745,49.737196)"
     id="g3"><path
       style="fill:#fefefe;fill-opacity:1"
       id="path5"
       d="m 306.768,346.814 0.131,0 c 4.615,0 9.176,-1.339 12.866,-3.777 l 1.001,-0.643 c 0.218,-0.142 0.446,-0.271 0.675,-0.424 l 11.658,-9.645 278.259,-229.624 c -0.576,-0.795 -1.557,-1.339 -2.602,-1.339 l -605.523,0 c -0.751,0 -1.448,0.272 -2.003,0.729 l 291.125,239.954 c 3.669,3.038 8.904,4.769 14.413,4.769 z M 0,133.899 0,474.269 208.55,305.798 0,133.899 Z M 403.668,306.941 612,474.356 612,135.031 403.668,306.941 Z m -66.237,54.644 c -8.305,6.814 -19.168,10.57 -30.576,10.57 -11.451,0 -22.304,-3.734 -30.587,-10.516 L 228.503,322.245 0,506.806 l 0,0.587 c 0,1.753 1.502,3.244 3.276,3.244 l 605.491,0 c 1.741,0 3.232,-1.491 3.232,-3.255 l 0,-0.544 L 383.693,323.4 337.431,361.585 Z" /></g><g
     id="g7" /><g
     id="g9" /><g
     id="g11" /><g
     id="g13" /><g
     id="g15" /><g
     id="g17" /><g
     id="g19" /><g
     id="g21" /><g
     id="g23" /><g
     id="g25" /><g
     id="g27" /><g
     id="g29" /><g
     id="g31" /><g
     id="g33" /><g
     id="g35" /></svg>