<?xml version="1.0" encoding="UTF-8" standalone="no"?>
<svg
   xmlns:dc="http://purl.org/dc/elements/1.1/"
   xmlns:cc="http://creativecommons.org/ns#"
   xmlns:rdf="http://www.w3.org/1999/02/22-rdf-syntax-ns#"
   xmlns:svg="http://www.w3.org/2000/svg"
   xmlns="http://www.w3.org/2000/svg"
   xml:space="preserve"
   style="enable-background:new 0 0 485.211 485.211;"
   viewBox="0 0 485.211 485.211"
   height="485.211px"
   width="485.211px"
   y="0px"
   x="0px"
   id="Capa_1"
   version="1.1"><metadata
     id="metadata47"><rdf:RDF><cc:Work
         rdf:about=""><dc:format>image/svg+xml</dc:format><dc:type
           rdf:resource="http://purl.org/dc/dcmitype/StillImage" /><dc:title></dc:title></cc:Work></rdf:RDF></metadata><defs
     id="defs45" /><g
     style="fill:#f8de3c;fill-opacity:1"
     transform="matrix(0.85423722,0,0,0.85423722,34.95164,37.161841)"
     id="g3"><g
       style="fill:#f8de3c;fill-opacity:1"
       id="g5"><path
         style="fill:#f8de3c;fill-opacity:1"
         id="path7"
         d="m 121.304,75.816 -90.977,0 C 13.564,75.816 0,89.409 0,106.141 l 0,333.586 c 0,16.76 13.564,30.322 30.327,30.322 l 90.978,0 c 16.762,0 30.324,-13.562 30.324,-30.322 l 0,-333.586 C 151.628,89.409 138.066,75.816 121.304,75.816 Z M 45.49,379.073 c -8.382,0 -15.163,-6.781 -15.163,-15.168 0,-8.377 6.781,-15.158 15.163,-15.158 8.38,0 15.161,6.781 15.161,15.158 0,8.387 -6.781,15.168 -15.161,15.168 z m 75.814,-181.955 -90.977,0 0,-30.324 90.978,0 0,30.324 z m 0,-60.651 -90.977,0 0,-30.326 90.978,0 0,30.326 z" /><path
         style="fill:#f8de3c;fill-opacity:1"
         id="path9"
         d="m 318.423,409.396 0,-30.322 -90.98,0 0,30.322 c -16.759,0 -30.327,13.567 -30.327,30.331 l 151.629,0 c 0,-16.764 -13.562,-30.331 -30.322,-30.331 z" /><path
         style="fill:#f8de3c;fill-opacity:1"
         id="path11"
         d="m 454.889,15.163 -363.911,0 c -16.762,0 -30.327,13.593 -30.327,30.327 l 30.327,0 90.978,0 272.934,0 0,242.604 -272.935,0 0,60.653 272.934,0 c 16.759,0 30.322,-13.562 30.322,-30.332 l 0,-272.926 c 0,-16.734 -13.564,-30.326 -30.322,-30.326 z M 272.933,333.584 c -8.382,0 -15.163,-6.777 -15.163,-15.169 0,-8.377 6.781,-15.158 15.163,-15.158 8.383,0 15.164,6.781 15.164,15.158 0,8.392 -6.782,15.169 -15.164,15.169 z" /></g></g><g
     id="g13" /><g
     id="g15" /><g
     id="g17" /><g
     id="g19" /><g
     id="g21" /><g
     id="g23" /><g
     id="g25" /><g
     id="g27" /><g
     id="g29" /><g
     id="g31" /><g
     id="g33" /><g
     id="g35" /><g
     id="g37" /><g
     id="g39" /><g
     id="g41" /></svg>