<?xml version="1.0" encoding="UTF-8" standalone="no"?>
<svg
   xmlns:dc="http://purl.org/dc/elements/1.1/"
   xmlns:cc="http://creativecommons.org/ns#"
   xmlns:rdf="http://www.w3.org/1999/02/22-rdf-syntax-ns#"
   xmlns:svg="http://www.w3.org/2000/svg"
   xmlns="http://www.w3.org/2000/svg"
   viewBox="0 0 225 225"
   height="225"
   width="225"
   version="1.1"
   id="svg2">
  <metadata
     id="metadata8">
    <rdf:RDF>
      <cc:Work
         rdf:about="">
        <dc:format>image/svg+xml</dc:format>
        <dc:type
           rdf:resource="http://purl.org/dc/dcmitype/StillImage" />
        <dc:title></dc:title>
      </cc:Work>
    </rdf:RDF>
  </metadata>
  <defs
     id="defs6" />
  <path
     id="path4138"
     d="m 99.003713,183.77273 c -2.679572,-1.22949 -4.897589,-5.92933 -4.181171,-8.85966 0.503182,-2.05814 0.42381,-2.18195 -0.63998,-0.99824 -4.450639,4.9523 -9.404206,5.36383 -13.841368,1.14991 -2.89275,-2.74721 -3.092362,-3.26011 -2.599058,-6.67808 l 0.534344,-3.70232 -2.413897,1.19592 c -7.565813,3.74836 -15.852045,-2.81665 -13.477916,-10.67827 0.779445,-2.58103 0.778119,-2.58224 -1.366475,-1.24775 -4.488194,2.79282 -12.460534,0.88808 -14.554985,-3.47746 -1.820583,-3.79472 -1.077366,-6.58946 3.432657,-12.90791 2.417529,-3.38691 4.138154,-6.56761 3.823608,-7.06823 -0.314544,-0.50061 -2.706466,-3.6167 -5.315379,-6.92465 l -4.74348,-6.01443 1.459832,-3.46492 c 0.802908,-1.90571 1.775596,-3.46492 2.16153,-3.46492 0.385934,0 3.377193,3.41256 6.647241,7.58348 5.895029,7.51906 5.978286,7.58349 9.799472,7.58349 5.833406,0 8.433329,2.52362 9.152482,8.88389 l 0.567517,5.01917 3.65571,0.46343 c 5.288868,0.67046 8.070651,2.72995 9.328047,6.90601 1.503153,4.99225 2.2697,5.69101 6.243093,5.69101 3.943805,0 7.379083,2.76044 8.511063,6.8391 0.75672,2.7266 16.02103,14.22615 18.88353,14.22615 1.93822,0 5.28306,-2.80144 5.28177,-4.42371 -4.7e-4,-0.5793 -4.01224,-4.06433 -8.91506,-7.74454 -7.58808,-5.69584 -8.87489,-7.01097 -8.64984,-8.8402 0.15449,-1.25566 0.91599,-2.26628 1.83196,-2.43128 0.92007,-0.16572 7.46057,3.80225 15.83417,9.60626 12.92983,8.96206 14.48702,9.815 16.61896,9.10295 3.01253,-1.00614 4.87073,-4.53142 3.79928,-7.20777 -0.44483,-1.11113 -7.26963,-6.60799 -15.52757,-12.50626 -12.72701,-9.09033 -14.70482,-10.81068 -14.52053,-12.63028 0.45744,-4.51641 3.44205,-3.21406 21.10148,9.20772 18.7258,13.17187 20.91418,14.03135 23.52373,9.23895 0.78422,-1.44023 1.2092,-3.43089 0.94443,-4.42371 -0.29325,-1.09958 -7.95075,-7.17179 -19.59167,-15.5357 -10.51064,-7.55183 -19.11025,-14.06158 -19.11025,-14.46611 0,-2.02253 1.2911,-3.40118 3.18521,-3.40118 1.3354,0 9.11131,4.94167 21.21413,13.48176 19.17567,13.53091 21.36901,14.63028 25.25159,12.65693 2.06322,-1.04864 3.72582,-5.50728 3.03226,-8.13164 -0.32511,-1.23017 -11.56096,-11.53584 -28.82901,-26.44232 l -28.29626,-24.426504 -4.36525,0 c -5.69493,0 -9.29088,2.725135 -11.05958,8.381332 -1.71057,5.470327 -3.451318,8.469802 -6.449531,11.113152 -5.480533,4.83187 -11.705661,6.4937 -16.912918,4.51499 -5.068844,-1.9261 -6.004736,-4.3606 -3.757672,-9.774622 0.979065,-2.358929 2.110329,-7.379947 2.51392,-11.157784 0.443786,-4.154108 1.487314,-8.270872 2.640359,-10.416333 1.048608,-1.951138 1.906559,-3.752216 1.906559,-4.002396 0,-0.250179 -4.157902,-0.454875 -9.239782,-0.454875 l -9.23978,0 1.874258,-4.213048 1.874259,-4.213048 14.340791,0 c 14.334185,0 14.343608,-0.0017 20.452437,-2.738481 5.80866,-2.602715 6.61751,-2.737037 16.31501,-2.709344 8.68795,0.02481 11.31665,0.374762 17.6992,2.35625 4.12272,1.279913 10.25541,2.593912 13.62822,2.919994 l 6.13237,0.592885 12.75347,26.120899 c 7.01441,14.366493 12.75977,26.563433 12.76745,27.104303 0.008,0.54088 -0.79378,2.77296 -1.781,4.96016 l -1.79494,3.97677 1.79494,3.52131 c 3.76971,7.3954 1.21629,16.1147 -5.57691,19.04366 -2.04531,0.88186 -4.41746,1.61171 -5.27143,1.62189 -1.15557,0.0138 -1.55354,0.71892 -1.556,2.75698 -0.007,5.61871 -5.83556,10.74328 -12.21954,10.74328 -2.23971,0 -2.72155,0.39406 -3.18755,2.60682 -0.30194,1.43375 -1.90897,3.89839 -3.57118,5.47696 -2.56817,2.43897 -3.63962,2.87015 -7.13203,2.87015 -2.2604,0 -5.58801,-0.58654 -7.39466,-1.30344 -2.5282,-1.0032 -3.36929,-1.06275 -3.65156,-0.25853 -0.74921,2.13454 -4.43441,4.83446 -7.97297,5.84131 -3.06277,0.87146 -4.22139,0.82471 -7.21219,-0.291 -3.39737,-1.26738 -3.60688,-1.25178 -4.50131,0.33542 -1.19404,2.11881 -6.05184,4.95504 -8.36647,4.88476 -0.97598,-0.0297 -2.65186,-0.45644 -3.724187,-0.94846 z M 23.762762,115.18154 c -7.473349,-3.63744 -9.513445,-5.61628 -8.753742,-8.49089 0.302782,-1.14568 5.208401,-11.439311 10.901377,-22.874717 5.692975,-11.435418 12.107688,-24.499811 14.254916,-29.031993 2.876309,-6.071057 4.412627,-8.361552 5.835952,-8.70081 1.236661,-0.294767 4.486835,0.759484 9.031446,2.929508 6.662844,3.181469 8.212616,4.551744 8.212616,7.261423 0,2.020389 -28.384117,59.809969 -29.905887,60.887879 -2.116121,1.4989 -2.658778,1.38669 -9.576678,-1.9804 z m 166.210288,0.29518 c -0.60418,-1.04273 -5.55189,-10.99605 -10.9949,-22.118499 -5.44302,-11.122451 -11.75018,-23.89788 -14.01593,-28.389857 -2.26575,-4.49197 -4.11954,-8.94976 -4.11954,-9.906198 0,-1.355791 1.85686,-2.614966 8.42681,-5.714383 l 8.42681,-3.975404 1.78768,1.697738 c 1.64856,1.56562 25.43538,47.831977 29.34462,57.076503 2.29581,5.42913 1.39748,6.78654 -6.85502,10.35811 -7.81648,3.38287 -10.47867,3.59849 -12.00053,0.97199 z"
     style="fill:#412a1e;fill-opacity:1" />
</svg>
