<?xml version="1.0" encoding="UTF-8" standalone="no"?>
<svg
   xmlns:dc="http://purl.org/dc/elements/1.1/"
   xmlns:cc="http://creativecommons.org/ns#"
   xmlns:rdf="http://www.w3.org/1999/02/22-rdf-syntax-ns#"
   xmlns:svg="http://www.w3.org/2000/svg"
   xmlns="http://www.w3.org/2000/svg"
   viewBox="0 0 225 225"
   height="225"
   width="225"
   version="1.1"
   id="svg2">
  <metadata
     id="metadata8">
    <rdf:RDF>
      <cc:Work
         rdf:about="">
        <dc:format>image/svg+xml</dc:format>
        <dc:type
           rdf:resource="http://purl.org/dc/dcmitype/StillImage" />
        <dc:title></dc:title>
      </cc:Work>
    </rdf:RDF>
  </metadata>
  <defs
     id="defs6" />
  <path
     id="path4138"
     d="m 51.970001,185.06516 c -3.917384,-1.9821 -4.056823,-3.11883 -4.060528,-33.10183 l -0.0035,-28.04858 16.822556,-13.82104 c 9.252437,-7.60157 23.945592,-19.67466 32.651487,-26.829078 8.705894,-7.154414 16.040334,-12.881408 16.298764,-12.726649 0.25842,0.15476 7.43845,6.008375 15.95561,13.008037 8.51718,6.99966 23.06512,18.94612 32.32876,26.54769 l 16.84299,13.82104 -0.21516,29.04312 c -0.21485,28.99906 -0.21798,29.04594 -2.06581,30.89408 -1.8285,1.82883 -2.13241,1.85382 -25.40632,2.08941 l -23.55567,0.23843 0,-22.00501 0,-22.005 -14.27959,0.22201 -14.27957,0.22201 0.0763,21.74781 0.0763,21.74781 -22.58506,-0.012 c -16.481847,-0.008 -23.129983,-0.2877 -24.601547,-1.03228 z M 27.773434,122.42189 c -4.583653,-4.97269 -6.118359,-7.54221 -5.518565,-9.23962 0.695583,-1.96848 81.823331,-69.379187 85.635371,-71.156173 6.9852,-3.256156 9.87755,-1.909265 27.4822,12.797703 l 14.14179,11.814088 0,-11.048875 c 0,-6.076881 0.37873,-11.756525 0.84161,-12.621431 0.77744,-1.45265 1.81889,-1.572557 13.65844,-1.572557 8.88464,0 13.11615,0.299314 13.79243,0.975603 0.71437,0.714366 0.9756,7.34839 0.9756,24.775131 l 0,23.799531 12.55399,10.38721 c 6.90468,5.71297 12.78864,11.04537 13.07545,11.84977 0.29459,0.82626 -0.0846,2.38746 -0.87142,3.5884 -2.66665,4.06981 -7.9021,9.17658 -9.40783,9.17658 -0.83366,0 -19.15126,-14.69501 -40.70576,-32.65559 -21.5545,-17.960569 -39.59549,-32.655583 -40.09109,-32.655583 -0.49561,0 -18.536606,14.695014 -40.091106,32.655583 -21.554501,17.96058 -39.872095,32.65559 -40.705766,32.65559 -0.833671,0 -2.978076,-1.58641 -4.765344,-3.52536 z"
     style="fill:#fefefe;fill-opacity:1" />
</svg>
