<?xml version="1.0" encoding="UTF-8" standalone="no"?>
<svg
   xmlns:dc="http://purl.org/dc/elements/1.1/"
   xmlns:cc="http://creativecommons.org/ns#"
   xmlns:rdf="http://www.w3.org/1999/02/22-rdf-syntax-ns#"
   xmlns:svg="http://www.w3.org/2000/svg"
   xmlns="http://www.w3.org/2000/svg"
   id="svg2"
   xml:space="preserve"
   viewBox="0 0 48 48"
   version="1.1"
   style="enable-background:new 0 0 48 48;"><metadata
     id="metadata16"><rdf:RDF><cc:Work
         rdf:about=""><dc:format>image/svg+xml</dc:format><dc:type
           rdf:resource="http://purl.org/dc/dcmitype/StillImage" /><dc:title></dc:title></cc:Work></rdf:RDF></metadata><defs
     id="defs14" /><g
     style="fill:#fefefe;fill-opacity:1"
     transform="matrix(1.8757053,0,0,1.8757053,-20.915237,-20.925335)"
     id="Icons"><g
       style="fill:#fefefe;fill-opacity:1"
       id="Icons_1_"><g
         style="fill:#fefefe;fill-opacity:1"
         id="g6"><g
           style="fill:#fefefe;fill-opacity:1"
           id="g8"><path
             id="path10"
             style="fill:#fefefe;fill-opacity:1"
             d="m 25.15192,22.20915 c 0,-0.4997 -0.0085,-0.9997 0.0038,-1.4991 0.0056,-0.2276 -0.0674,-0.3131 -0.3035,-0.3114 -1.2282,0.0088 -2.4565,0.0083 -3.6848,2e-4 -0.2251,-0.0015 -0.3092,0.0598 -0.3088,0.3 0.0063,4.5252 0.0062,9.0504 2e-4,13.5756 -4e-4,0.2351 0.0747,0.3057 0.3047,0.3042 1.2848,-0.0084 2.5697,-0.0091 3.8545,5e-4 0.2337,0.0018 0.2993,-0.0704 0.2984,-0.3031 -0.0084,-2.1494 -0.0111,-4.299 -5e-4,-6.4484 0.0026,-0.5308 0.0352,-1.0642 0.0981,-1.5912 0.0686,-0.5753 0.2528,-1.1192 0.6571,-1.558 0.519,-0.5633 1.1932,-0.6903 1.9211,-0.6767 1.0159,0.019 1.649,0.4923 1.9392,1.4648 0.1871,0.6267 0.2021,1.2711 0.2024,1.9169 0.0012,2.2868 2e-4,4.5737 9e-4,6.8605 10e-5,0.3195 0.0104,0.3301 0.3245,0.3303 1.2525,10e-4 2.505,6e-4 3.7575,3e-4 0.3905,0 0.3925,-6e-4 0.3909,-0.3855 -0.0114,-2.7707 -0.0187,-5.5415 -0.0386,-8.3122 -0.0061,-0.8488 -0.12,-1.6881 -0.3524,-2.5063 -0.3559,-1.2527 -1.0263,-2.2744 -2.2576,-2.808 -1.2883,-0.5583 -2.6375,-0.6593 -4.0015,-0.3247 -1.1772,0.28881 -2.1077,0.94951 -2.8056,1.9713 z m -6.9688,5.2926 c 0,-2.2624 -0.004,-4.5247 0.0058,-6.787 0.001,-0.2455 -0.0645,-0.319 -0.3099,-0.317 -1.2765,0.0105 -2.5532,0.0098 -3.8297,5e-4 -0.2392,-0.0018 -0.3198,0.0652 -0.3195,0.3146 0.0069,4.5166 0.0069,9.0331 10e-5,13.5497 -4e-4,0.2471 0.0756,0.3185 0.3175,0.3166 1.2765,-0.0097 2.5531,-0.0098 3.8297,1e-4 0.242,0.0019 0.3131,-0.066 0.312,-0.3148 -0.0102,-2.2542 -0.006,-4.5085 -0.006,-6.7627 z m -4.7909,-11.5049 c 3e-4,1.4106 1.1555,2.5918 2.5683,2.5777 1.4577,-0.0146 2.5889,-1.1126 2.5862,-2.5806 -0.0027,-1.4936 -1.1542,-2.5815 -2.5889,-2.5732 -1.53,0.0089 -2.5629,1.2334 -2.5656,2.5761 z" /></g></g></g></g></svg>