<?xml version="1.0" encoding="UTF-8" standalone="no"?>
<svg
   xmlns:dc="http://purl.org/dc/elements/1.1/"
   xmlns:cc="http://creativecommons.org/ns#"
   xmlns:rdf="http://www.w3.org/1999/02/22-rdf-syntax-ns#"
   xmlns:svg="http://www.w3.org/2000/svg"
   xmlns="http://www.w3.org/2000/svg"
   id="svg2"
   version="1.1"
   width="225"
   height="225"
   viewBox="0 0 225 225">
  <metadata
     id="metadata8">
    <rdf:RDF>
      <cc:Work
         rdf:about="">
        <dc:format>image/svg+xml</dc:format>
        <dc:type
           rdf:resource="http://purl.org/dc/dcmitype/StillImage" />
        <dc:title></dc:title>
      </cc:Work>
    </rdf:RDF>
  </metadata>
  <defs
     id="defs6" />
  <path
     style="fill:#fefefe;fill-opacity:1"
     d="m 66.681356,205.98508 c -8.526084,-1.42822 -13.978777,-5.07221 -26.850769,-17.94421 -9.632156,-9.63216 -12.503936,-13.04569 -14.609584,-17.36564 -3.574839,-7.33415 -4.778292,-14.98312 -3.515757,-22.34566 1.961709,-11.43981 2.637582,-12.31564 33.310466,-43.16538 25.287486,-25.433282 28.575322,-28.453798 33.765012,-31.019755 7.726743,-3.82036 14.474426,-4.954359 22.042796,-3.704465 9.57863,1.581872 15.00595,4.843721 25.98643,15.618004 5.32527,5.22527 10.12272,10.35827 10.66098,11.40666 0.91205,1.77643 0.40547,2.48865 -7.44258,10.463886 -4.63169,4.70674 -9.1408,8.78609 -10.02027,9.06522 -1.25044,0.39688 -3.59422,-1.48202 -10.75132,-8.6188 -9.07775,-9.051996 -11.79578,-10.775896 -15.94935,-10.115756 -2.71466,0.43145 -53.322478,51.517196 -53.974046,54.483756 -0.753565,3.43096 1.077875,6.03824 11.324797,16.12223 9.037838,8.89414 9.522411,9.24035 12.93331,9.24035 3.428677,0 3.870696,-0.32331 13.621401,-9.96306 11.243887,-11.11595 10.062367,-10.68853 19.069138,-6.89823 3.29856,1.38814 7.32712,2.32946 11.08841,2.59095 13.58691,0.94456 13.55564,1.0481 -6.20753,20.55715 -17.453188,17.22877 -21.525784,19.994 -31.82785,21.61069 -5.983761,0.93902 -6.94896,0.93765 -12.653684,-0.018 z m 48.072064,-47.66293 c -8.63072,-1.49964 -13.79853,-4.805 -25.452416,-16.27948 -5.93303,-5.8417 -10.787327,-11.11966 -10.787327,-11.7288 0,-1.48528 17.367957,-18.73882 18.8631,-18.73882 0.647325,0 5.480523,4.25056 10.740433,9.44568 9.27409,9.15986 9.67259,9.44569 13.16917,9.44569 l 3.6057,0 26.09263,-26.09263 26.09262,-26.092622 0,-3.605696 c 0,-3.499774 -0.28177,-3.890973 -9.59216,-13.317478 -10.22506,-10.352575 -13.06664,-12.098154 -17.16048,-10.541686 -1.2916,0.491069 -6.63059,5.122328 -11.86443,10.291704 -5.23384,5.169368 -9.89015,9.398858 -10.34737,9.398858 -0.45722,0 -2.73793,-0.919788 -5.06825,-2.043972 -5.3535,-2.582606 -10.00781,-3.659997 -15.92139,-3.685501 -11.007014,-0.04747 -10.419231,-1.44362 8.55714,-20.325574 13.58229,-13.514721 16.58383,-16.09384 21.29156,-18.295156 11.06059,-5.171885 21.96604,-5.13756 32.6751,0.102845 4.30525,2.106746 7.76574,5.018463 17.36301,14.609588 9.83882,9.832496 12.44827,12.950869 14.56569,17.406406 5.01008,10.542369 5.00883,22.331668 -0.003,32.765458 -2.24452,4.67228 -5.85662,8.65323 -28.93041,31.884656 -14.60169,14.70146 -28.51975,27.98976 -31.19342,29.782 -7.55818,5.06647 -17.64262,7.18744 -26.69502,5.61453 z"
     id="path4138" />
</svg>
