<?xml version="1.0" encoding="UTF-8" standalone="no"?>
<svg
   xmlns:dc="http://purl.org/dc/elements/1.1/"
   xmlns:cc="http://creativecommons.org/ns#"
   xmlns:rdf="http://www.w3.org/1999/02/22-rdf-syntax-ns#"
   xmlns:svg="http://www.w3.org/2000/svg"
   xmlns="http://www.w3.org/2000/svg"
   viewBox="0 0 250 250"
   height="250"
   width="250"
   version="1.1"
   id="svg2">
  <metadata
     id="metadata8">
    <rdf:RDF>
      <cc:Work
         rdf:about="">
        <dc:format>image/svg+xml</dc:format>
        <dc:type
           rdf:resource="http://purl.org/dc/dcmitype/StillImage" />
        <dc:title></dc:title>
      </cc:Work>
    </rdf:RDF>
  </metadata>
  <defs
     id="defs6" />
  <path
     id="path4138"
     d="m 50.183051,227.54925 c -6.020729,-3.33702 -5.844805,-0.34499 -5.888905,-100.1562 -0.03082,-69.763512 0.30608,-93.834231 1.345262,-96.114986 2.89063,-6.344243 2.95035,-6.350097 64.778422,-6.350097 39.39149,0 57.77932,0.397027 59.53113,1.28539 3.62661,1.839085 35.44265,33.497242 37.42797,37.242231 1.39296,2.627604 1.66122,15.520263 1.66122,79.839162 0,83.24967 0.12883,81.53557 -6.3501,84.48755 -4.64635,2.11702 -148.662038,1.89695 -152.504999,-0.23305 z m 135.645929,-84.2545 0,-62.664769 -11.66222,0 c -18.63457,0 -20.83062,-2.207887 -20.83062,-20.942858 l 0,-11.549983 -42.93697,0 -42.936972,0 0,78.91119 0,78.91119 59.183392,0 59.18339,0 0,-62.66477 z m -98.511253,44.79891 c -7.777268,-4.3106 -7.522064,-16.58468 0.420072,-20.20335 4.768093,-2.17249 73.934271,-1.93607 78.195081,0.26727 7.72308,3.99376 7.72308,15.9081 0,19.90186 -4.50185,2.328 -74.421767,2.35845 -78.615153,0.0343 z m 0,-37.13468 c -5.491108,-3.04348 -7.321793,-9.72994 -4.276368,-15.61914 2.944452,-5.69394 4.97006,-5.97059 43.716461,-5.97059 39.03774,0 40.99541,0.28409 43.75927,6.3501 2.71298,5.95435 0.75659,12.44358 -4.58421,15.20542 -4.50185,2.328 -74.421767,2.35844 -78.615153,0.0343 z m 1.160459,-37.10116 C 82.96221,110.73391 81.159169,104.089 84.220938,98.168186 86.392354,93.969127 97.558463,88.905731 108.32065,87.2399 c 13.59467,-2.104259 33.74286,3.007063 38.47283,9.760029 2.84229,4.057951 2.43199,10.733671 -0.89782,14.607611 l -2.79863,3.25597 -25.92272,0.28251 c -20.073763,0.21876 -26.548476,-0.0719 -28.696124,-1.2882 z M 110.13823,82.302431 c -3.8851,-2.108366 -5.54136,-5.036187 -5.54136,-9.79566 0,-4.855919 1.69034,-7.737522 5.77907,-9.851887 5.04628,-2.609534 8.83509,-2.141541 13.0337,1.60992 3.11441,2.782714 3.76344,4.204093 3.76344,8.241967 0,4.037874 -0.64903,5.459252 -3.76344,8.241967 -4.18935,3.743187 -8.34116,4.229243 -13.27141,1.553694 z"
     style="fill:#fefefe;fill-opacity:1" />
</svg>
