<?xml version="1.0" encoding="UTF-8" standalone="no"?>
<svg
   xmlns:dc="http://purl.org/dc/elements/1.1/"
   xmlns:cc="http://creativecommons.org/ns#"
   xmlns:rdf="http://www.w3.org/1999/02/22-rdf-syntax-ns#"
   xmlns:svg="http://www.w3.org/2000/svg"
   xmlns="http://www.w3.org/2000/svg"
   viewBox="0 0 225 225"
   height="225"
   width="225"
   version="1.1"
   id="svg2">
  <metadata
     id="metadata8">
    <rdf:RDF>
      <cc:Work
         rdf:about="">
        <dc:format>image/svg+xml</dc:format>
        <dc:type
           rdf:resource="http://purl.org/dc/dcmitype/StillImage" />
        <dc:title></dc:title>
      </cc:Work>
    </rdf:RDF>
  </metadata>
  <defs
     id="defs6" />
  <path
     id="path4138"
     d="m 94.763076,193.57034 c -2.138233,-0.96833 -5.697595,-3.68623 -7.909694,-6.03975 C 79.480987,179.68688 75.797426,170.88682 65.860531,137.37845 54.253537,98.238311 51.808706,92.016725 45.81199,86.359083 41.569419,82.356398 39.84763,82.478118 31.734469,87.354264 l -7.287402,4.379861 -1.999608,-2.394354 C 21.347675,88.02287 19.324041,85.577587 17.950495,83.9058 L 15.453137,80.866202 28.905681,69.650921 C 46.295194,55.153426 55.735119,48.189575 63.229546,44.330134 c 5.246501,-2.701816 6.84855,-3.11482 12.095052,-3.118072 7.060304,-0.0044 11.537599,1.925641 15.843259,6.829518 5.876824,6.693331 7.35338,11.417488 11.889553,38.039896 5.16667,30.322804 10.83279,48.314944 16.35487,51.933164 4.4309,2.90324 10.28587,-1.36827 19.35866,-14.12319 23.48373,-33.01451 19.428,-51.358967 -9.69353,-43.844671 l -2.40279,0.619992 1.74905,-4.437381 c 9.73366,-24.694491 26.68159,-37.158209 50.60729,-37.217222 11.98573,-0.02957 20.70411,3.786585 25.35011,11.096088 3.67666,5.784449 4.74638,10.549501 4.77857,21.286373 0.034,11.324345 -1.69893,17.848442 -8.16138,30.726371 -13.22418,26.35227 -49.07302,68.99693 -69.15812,82.26833 -15.46341,10.21757 -27.95699,13.31123 -37.077064,9.18101 z"
     style="fill:#fefefe;fill-opacity:1" />
</svg>
